<mxfile host="app.diagrams.net" modified="2024-03-21T13:31:03.963Z" agent="Mozilla/5.0 (Macintosh; Intel Mac OS X 10_15_7) AppleWebKit/537.36 (KHTML, like Gecko) Chrome/122.0.0.0 Safari/537.36" version="24.0.7" etag="i7iKev_P6Hl-X5s2D_Gn" type="github">
  <diagram name="Seite-1" id="ei9cEcGbhp3HFB4cMzTn">
    <mxGraphModel>
      <root>
        <mxCell id="0" />
        <mxCell id="1" parent="0" />
      </root>
    </mxGraphModel>
  </diagram>
</mxfile>
